<svg width="132" height="100" viewBox="0 0 132 100" fill="none" xmlns="http://www.w3.org/2000/svg">
<circle cx="50" cy="50" r="46" fill="white" stroke="black" stroke-width="8"/>
<path d="M132 50L86 0C112.777 38.3201 112.766 60.1922 86 100L132 50Z" fill="black"/>
<path d="M46.35 76.35C43.0367 76.35 39.8867 75.5333 36.9 73.9C33.9133 72.2667 32.42 69.1167 32.42 64.45C32.42 61.4167 33.1433 58.99 34.59 57.17C36.0833 55.35 38.1833 54.44 40.89 54.44C44.0633 54.44 45.8833 55.63 46.35 58.01C43.97 58.15 42.3367 58.9667 41.45 60.46C40.61 61.9533 40.19 63.6567 40.19 65.57C40.19 67.5767 40.7733 69.14 41.94 70.26C43.1067 71.38 44.53 71.94 46.21 71.94C47.7033 71.94 49.1267 71.4967 50.48 70.61C51.88 69.7233 53.0233 68.37 53.91 66.55C54.7967 64.73 55.24 62.5367 55.24 59.97C55.24 57.1233 54.4467 54.4867 52.86 52.06C51.32 49.5867 49.01 47.8133 45.93 46.74C48.4033 46.04 50.55 44.9433 52.37 43.45C54.19 41.91 55.5667 40.23 56.5 38.41C57.4333 36.5433 57.9 34.77 57.9 33.09C57.9 31.3633 57.4333 29.9867 56.5 28.96C55.6133 27.8867 54.3067 27.35 52.58 27.35C50.9 27.35 49.5467 27.8633 48.52 28.89C47.54 29.87 47.05 31.1767 47.05 32.81C47.05 33.93 47.26 34.98 47.68 35.96C48.1467 36.94 48.8233 37.5467 49.71 37.78C47.9833 39.3667 46.21 40.16 44.39 40.16C42.9433 40.16 41.73 39.6467 40.75 38.62C39.8167 37.5467 39.35 36.0767 39.35 34.21C39.35 32.11 39.98 30.2667 41.24 28.68C42.5467 27.0467 44.2967 25.7867 46.49 24.9C48.6833 24.0133 51.1333 23.57 53.84 23.57C56.5933 23.57 58.95 24.0367 60.91 24.97C62.87 25.9033 64.34 27.14 65.32 28.68C66.3467 30.22 66.86 31.9233 66.86 33.79C66.86 36.2167 66.0433 38.5967 64.41 40.93C62.7767 43.2633 60.3967 45.2233 57.27 46.81C60.21 47.79 62.4033 49.3067 63.85 51.36C65.3433 53.3667 66.09 55.7 66.09 58.36C66.09 61.2533 65.25 64.1 63.57 66.9C61.9367 69.6533 59.6033 71.9167 56.57 73.69C53.5833 75.4633 50.1767 76.35 46.35 76.35Z" fill="black"/>
</svg>
