<svg width="132" height="100" viewBox="0 0 132 100" fill="none" xmlns="http://www.w3.org/2000/svg">
<circle cx="50" cy="50" r="46" fill="white" stroke="black" stroke-width="8"/>
<path d="M132 50L86 0C112.777 38.3201 112.766 60.1922 86 100L132 50Z" fill="black"/>
<path d="M54.91 76.84C53.9767 76.84 52.9967 76.7233 51.97 76.49C50.99 76.2567 49.7767 75.93 48.33 75.51C46.6033 74.9967 45.18 74.6233 44.06 74.39C42.94 74.1567 41.7733 74.04 40.56 74.04C37.9467 74.04 35.38 74.7167 32.86 76.07H32.58C32.3 74.95 32.16 73.8533 32.16 72.78C32.16 70.82 32.65 68.9067 33.63 67.04C34.6567 65.1267 35.8933 63.3767 37.34 61.79C38.7867 60.2033 40.77 58.1733 43.29 55.7C45.95 53.1333 48.0967 50.94 49.73 49.12C51.3633 47.2533 52.74 45.2233 53.86 43.03C54.98 40.79 55.54 38.4567 55.54 36.03C55.54 33.37 55.0967 31.27 54.21 29.73C53.37 28.19 52.0633 27.42 50.29 27.42C48.6567 27.42 47.3267 27.98 46.3 29.1C45.2733 30.1733 44.76 31.5033 44.76 33.09C44.76 34.6767 45.0633 36.1 45.67 37.36C46.3233 38.5733 47.14 39.46 48.12 40.02V40.3C47.3267 41.0467 46.4633 41.63 45.53 42.05C44.5967 42.47 43.6867 42.68 42.8 42.68C41.3533 42.68 40.14 42.0267 39.16 40.72C38.2267 39.4133 37.76 37.64 37.76 35.4C37.76 33.44 38.32 31.55 39.44 29.73C40.6067 27.91 42.31 26.4167 44.55 25.25C46.79 24.0833 49.4267 23.5 52.46 23.5C56.52 23.5 59.7867 24.6433 62.26 26.93C64.78 29.17 66.04 32.2733 66.04 36.24C66.04 38.76 65.3867 41.0933 64.08 43.24C62.82 45.3867 61.2567 47.3 59.39 48.98C57.5233 50.66 55.0267 52.69 51.9 55.07C48.82 57.4033 46.37 59.41 44.55 61.09C42.73 62.77 41.33 64.5433 40.35 66.41C41.7033 66.0367 43.15 65.85 44.69 65.85C45.81 65.85 46.9767 65.9433 48.19 66.13C49.4033 66.3167 50.5467 66.5267 51.62 66.76C51.8067 66.8067 52.4133 66.9467 53.44 67.18C54.5133 67.3667 55.47 67.46 56.31 67.46C57.57 67.46 58.7367 67.2033 59.81 66.69C60.8833 66.13 62.0033 65.1967 63.17 63.89L63.38 64.03C63.9867 65.7567 64.29 67.2033 64.29 68.37C64.29 70.0033 63.8467 71.4733 62.96 72.78C62.12 74.04 60.9767 75.0433 59.53 75.79C58.0833 76.49 56.5433 76.84 54.91 76.84Z" fill="black"/>
</svg>
