<svg width="529" height="7" viewBox="0 0 529 7" fill="none" xmlns="http://www.w3.org/2000/svg">
<rect x="293.361" y="7" width="7" height="33.2773" transform="rotate(-90 293.361 7)" fill="#C4C4C4"/>
<rect x="247.759" y="7" width="7" height="33.2773" transform="rotate(-90 247.759 7)" fill="#C4C4C4"/>
<rect x="202.157" y="7" width="7" height="33.2773" transform="rotate(-90 202.157 7)" fill="#C4C4C4"/>
<rect x="156.555" y="7" width="7" height="33.2773" transform="rotate(-90 156.555 7)" fill="#C4C4C4"/>
<rect x="110.952" y="7" width="7" height="33.2773" transform="rotate(-90 110.952 7)" fill="#C4C4C4"/>
<rect x="66" y="7" width="7" height="33.2773" transform="rotate(-90 66 7)" fill="#C4C4C4"/>
<rect x="21" y="7" width="7" height="33.2773" transform="rotate(-90 21 7)" fill="#C4C4C4"/>
<rect x="338.964" y="7" width="7" height="33.2773" transform="rotate(-90 338.964 7)" fill="#C4C4C4"/>
<rect x="384.566" y="7" width="7" height="33.2773" transform="rotate(-90 384.566 7)" fill="#C4C4C4"/>
<rect x="430.168" y="7" width="7" height="33.2773" transform="rotate(-90 430.168 7)" fill="#C4C4C4"/>
<rect x="475.77" y="7" width="7" height="33.2773" transform="rotate(-90 475.77 7)" fill="#C4C4C4"/>
<circle cx="524.873" cy="3.5" r="3.5" transform="rotate(-90 524.873 3.5)" fill="#C4C4C4"/>
<circle cx="3.5" cy="3.5" r="3.5" transform="rotate(-90 3.5 3.5)" fill="#C4C4C4"/>
</svg>
